<?xml version="1.0" encoding="UTF-8"?>
<svg width="73px" height="73px" viewBox="0 0 73 73" version="1.1" xmlns="http://www.w3.org/2000/svg" xmlns:xlink="http://www.w3.org/1999/xlink">
    <defs>
        <radialGradient cx="50%" cy="45.4672328%" fx="50%" fy="45.4672328%" r="54.5327672%" id="radialGradient-1">
            <stop stop-color="#F9F9FF" offset="0%"></stop>
            <stop stop-color="#D7D6FF" offset="100%"></stop>
        </radialGradient>
        <radialGradient cx="69.0663815%" cy="50%" fx="69.0663815%" fy="50%" r="73.4524971%" id="radialGradient-2">
            <stop stop-color="#08116C" stop-opacity="0.638641357" offset="0%"></stop>
            <stop stop-color="#577BCA" offset="100%"></stop>
        </radialGradient>
        <radialGradient cx="69.0663815%" cy="50%" fx="69.0663815%" fy="50%" r="73.4524971%" id="radialGradient-3">
            <stop stop-color="#6B75DC" stop-opacity="0.638641357" offset="0%"></stop>
            <stop stop-color="#577BCA" offset="100%"></stop>
        </radialGradient>
        <radialGradient cx="69.0663815%" cy="50%" fx="69.0663815%" fy="50%" r="73.4524971%" id="radialGradient-4">
            <stop stop-color="#A4CFFF" stop-opacity="0.638641357" offset="0%"></stop>
            <stop stop-color="#577BCA" offset="100%"></stop>
        </radialGradient>
    </defs>
    <g id="UI" stroke="none" stroke-width="1" fill="none" fill-rule="evenodd">
         <g id="znak">
            <path d="M40.5,2.59807621 L62.6769145,15.4019238 C65.4615242,17.0096189 67.1769145,19.9807621 67.1769145,23.1961524 L67.1769145,48.8038476 C67.1769145,52.0192379 65.4615242,54.9903811 62.6769145,56.5980762 L40.5,69.4019238 C37.7153903,71.0096189 34.2846097,71.0096189 31.5,69.4019238 L9.32308546,56.5980762 C6.53847577,54.9903811 4.82308546,52.0192379 4.82308546,48.8038476 L4.82308546,23.1961524 C4.82308546,19.9807621 6.53847577,17.0096189 9.32308546,15.4019238 L31.5,2.59807621 C34.2846097,0.990381057 37.7153903,0.990381057 40.5,2.59807621 Z" id="Polygon" fill="url(#radialGradient-1)"></path>
            <path d="M27.8306857,31.9777316 L45.8758867,27.2393766 C48.012591,26.6783153 50.1995621,27.9556264 50.7606234,30.0923307 C50.9354962,30.7583033 50.9354962,31.4581408 50.7606234,32.1241133 L46.0222684,50.1693143 C45.6556835,51.5653893 44.5653893,52.6556835 43.1693143,53.0222684 L25.1241133,57.7606234 C22.987409,58.3216847 20.8004379,57.0443736 20.2393766,54.9076693 C20.0645038,54.2416967 20.0645038,53.5418592 20.2393766,52.8758867 L24.9777316,34.8306857 C25.3443165,33.4346107 26.4346107,32.3443165 27.8306857,31.9777316 Z" id="Rectangle" fill="url(#radialGradient-2)" transform="translate(35.500000, 42.500000) rotate(45.000000) translate(-35.500000, -42.500000) "></path>
            <path d="M27.8306857,24.9777316 L45.8758867,20.2393766 C48.012591,19.6783153 50.1995621,20.9556264 50.7606234,23.0923307 C50.9354962,23.7583033 50.9354962,24.4581408 50.7606234,25.1241133 L46.0222684,43.1693143 C45.6556835,44.5653893 44.5653893,45.6556835 43.1693143,46.0222684 L25.1241133,50.7606234 C22.987409,51.3216847 20.8004379,50.0443736 20.2393766,47.9076693 C20.0645038,47.2416967 20.0645038,46.5418592 20.2393766,45.8758867 L24.9777316,27.8306857 C25.3443165,26.4346107 26.4346107,25.3443165 27.8306857,24.9777316 Z" id="Rectangle-Copy" fill="url(#radialGradient-3)" transform="translate(35.500000, 35.500000) rotate(45.000000) translate(-35.500000, -35.500000) "></path>
            <path d="M27.8306857,16.9777316 L45.8758867,12.2393766 C48.012591,11.6783153 50.1995621,12.9556264 50.7606234,15.0923307 C50.9354962,15.7583033 50.9354962,16.4581408 50.7606234,17.1241133 L46.0222684,35.1693143 C45.6556835,36.5653893 44.5653893,37.6556835 43.1693143,38.0222684 L25.1241133,42.7606234 C22.987409,43.3216847 20.8004379,42.0443736 20.2393766,39.9076693 C20.0645038,39.2416967 20.0645038,38.5418592 20.2393766,37.8758867 L24.9777316,19.8306857 C25.3443165,18.4346107 26.4346107,17.3443165 27.8306857,16.9777316 Z" id="Rectangle-Copy-2" fill="url(#radialGradient-4)" transform="translate(35.500000, 27.500000) rotate(45.000000) translate(-35.500000, -27.500000) "></path>
        </g>
    </g>
</svg>